<?xml version="1.0" standalone="no"?><!DOCTYPE svg PUBLIC "-//W3C//DTD SVG 1.1//EN" "http://www.w3.org/Graphics/SVG/1.1/DTD/svg11.dtd"><svg t="1555317914705" class="icon" style="" viewBox="0 0 1024 1024" version="1.1" xmlns="http://www.w3.org/2000/svg" p-id="2339" xmlns:xlink="http://www.w3.org/1999/xlink" width="200" height="200"><defs><style type="text/css"></style></defs><path d="M831.488 217.088c-38.912-43.008-98.304-67.584-163.84-67.584-26.624 0-102.4 14.336-153.6 69.632-55.296-63.488-129.024-69.632-155.648-69.632-63.488 0-122.88 24.576-167.936 67.584C143.36 262.144 122.88 317.44 122.88 393.216c0 53.248 22.528 112.64 65.536 180.224l-47.104 47.104c-12.288 12.288-12.288 30.72 0 43.008 6.144 6.144 14.336 8.192 22.528 8.192s16.384-2.048 22.528-8.192l40.96-40.96c61.44 77.824 149.504 167.936 266.24 266.24 6.144 4.096 12.288 8.192 20.48 8.192 6.144 0 14.336-2.048 20.48-8.192C780.288 673.792 901.12 512 901.12 393.216c0-73.728-22.528-131.072-69.632-176.128zM512 825.344c-106.496-92.16-188.416-174.08-243.712-245.76l51.2-51.2 116.736 116.736c12.288 12.288 30.72 12.288 43.008 0l225.28-225.28v73.728c0 16.384 14.336 30.72 30.72 30.72s30.72-14.336 30.72-30.72V348.16c0-16.384-14.336-30.72-30.72-30.72h-143.36c-16.384 0-30.72 14.336-30.72 30.72s14.336 30.72 30.72 30.72h65.536l-200.704 200.704-116.736-116.736c-12.288-12.288-30.72-12.288-43.008 0l-65.536 65.536C200.704 477.184 184.32 432.128 184.32 393.216c0-59.392 14.336-98.304 51.2-133.12 32.768-32.768 77.824-49.152 124.928-49.152 26.624 0 90.112 8.192 126.976 77.824 6.144 10.24 16.384 16.384 26.624 16.384 12.288 0 22.528-6.144 26.624-16.384 30.72-63.488 108.544-77.824 126.976-77.824 47.104 0 90.112 18.432 118.784 49.152 0 0 0 2.048 2.048 2.048 34.816 34.816 51.2 75.776 51.2 133.12 0 63.488-57.344 192.512-327.68 430.08z" fill="#fd3d2e" p-id="2340"></path></svg>