<?xml version="1.0" standalone="no"?><!DOCTYPE svg PUBLIC "-//W3C//DTD SVG 1.1//EN" "http://www.w3.org/Graphics/SVG/1.1/DTD/svg11.dtd"><svg t="1555317911319" class="icon" style="" viewBox="0 0 1024 1024" version="1.1" xmlns="http://www.w3.org/2000/svg" p-id="2214" xmlns:xlink="http://www.w3.org/1999/xlink" width="200" height="200"><defs><style type="text/css"></style></defs><path d="M419.2 736l55.466667 32 181.333333-313.6v-64h-277.333333v64h203.733333z" fill="#333333" p-id="2215"></path><path d="M832 128H192c-35.2 0-64 28.8-64 64v640c0 35.2 28.8 64 64 64h640c35.2 0 64-28.8 64-64V192c0-35.2-28.8-64-64-64z m-128 60.8c20.266667 0 37.333333 17.066667 37.333333 37.333333s-17.066667 37.333333-37.333333 37.333334-37.333333-17.066667-37.333333-37.333334 17.066667-37.333333 37.333333-37.333333z m-384 0c20.266667 0 37.333333 17.066667 37.333333 37.333333s-17.066667 37.333333-37.333333 37.333334-37.333333-17.066667-37.333333-37.333334 17.066667-37.333333 37.333333-37.333333zM832 832H192V326.4h640V832z" fill="#fd6d5d" p-id="2216"></path></svg>