<?xml version="1.0" standalone="no"?><!DOCTYPE svg PUBLIC "-//W3C//DTD SVG 1.1//EN" "http://www.w3.org/Graphics/SVG/1.1/DTD/svg11.dtd"><svg t="1555317897664" class="icon" style="" viewBox="0 0 1024 1024" version="1.1" xmlns="http://www.w3.org/2000/svg" p-id="1715" xmlns:xlink="http://www.w3.org/1999/xlink" width="200" height="200"><defs><style type="text/css"></style></defs><path d="M0 512l0 512 512 0 512 0 0-512 0-512-512 0-512 0 0 512zm469.333333-197.973333c27.306667 20.48 40.96 20.48 87.04-1.706667 64.853333-32.426667 128-20.48 177.493333 32.426667 63.146667 68.266667 46.08 124.586667-80.213333 254.293333-61.44 64.853333-124.586667 117.76-139.946667 117.76-40.96 0-257.706667-228.693333-257.706667-269.653333 0-119.466667 126.293333-197.973333 213.333333-133.12z" fill="#f63f34" p-id="1716"></path><path d="M331.093333 384c-5.12 13.653333-6.826667 34.133333-1.706667 46.08 5.12 13.653333 10.24 10.24 10.24-8.533333 1.706667-17.066667 18.773333-37.546667 40.96-46.08l37.546667-15.36-39.253333 0c-20.48-1.706667-42.666667 10.24-47.786667 23.893333z" fill="#f63f34" p-id="1717"></path></svg>