<?xml version="1.0" standalone="no"?><!DOCTYPE svg PUBLIC "-//W3C//DTD SVG 1.1//EN" "http://www.w3.org/Graphics/SVG/1.1/DTD/svg11.dtd"><svg t="1555317901921" class="icon" style="" viewBox="0 0 1024 1024" version="1.1" xmlns="http://www.w3.org/2000/svg" p-id="1840" xmlns:xlink="http://www.w3.org/1999/xlink" width="200" height="200"><defs><style type="text/css"></style></defs><path d="M807.625486 342.821903l53.581336-53.93233-36.433794-36.685527-51.858088 52.209082c-61.895699-59.753919-143.982252-98.413404-234.967476-104.60236L537.947464 118.752638l86.25141 0L624.198873 66.886363 400.172587 66.886363l0 51.866275 86.252433 0 0 81.057107c-90.986247 6.188956-173.072801 44.849464-234.967476 104.60236l-51.874461-52.209082-36.433794 36.685527 53.597709 53.93233c-50.904367 64.663742-81.383542 146.348136-81.383542 235.251955 0 209.448266 168.722726 379.24137 376.825344 379.24137 208.100572 0 376.807948-169.794128 376.807948-379.24137C888.993678 489.170039 858.531899 407.485645 807.625486 342.821903zM512.18573 905.45714c-179.362041 0-325.268108-146.866952-325.268108-327.384305s145.906068-327.375096 325.268108-327.375096c179.361017 0 325.267085 146.858766 325.267085 327.375096S691.547771 905.45714 512.18573 905.45714zM540.055474 350.257246l-51.523467 0 0 254.406201 213.119889 0 0-51.867298L540.055474 552.796148 540.055474 350.257246z" fill="#b4b4b4" p-id="1841"></path></svg>