<?xml version="1.0" standalone="no"?><!DOCTYPE svg PUBLIC "-//W3C//DTD SVG 1.1//EN" "http://www.w3.org/Graphics/SVG/1.1/DTD/svg11.dtd"><svg class="icon" width="200px" height="200.00px" viewBox="0 0 1024 1024" version="1.1" xmlns="http://www.w3.org/2000/svg"><path fill="#8a8a8a" d="M389.115331 770.219783c5.30475 0 10.60438-2.047771 14.613915-6.133073l203.420417-207.234389c12.096181-12.32246 18.744269-28.619643 18.716624-45.887469-0.026621-17.267826-6.723855-33.544531-18.85792-45.830131l-203.323148-205.864431c-7.946374-8.045691-20.911834-8.128626-28.958548-0.17918-8.046715 7.947398-8.127602 20.912858-0.180204 28.959572L577.868591 493.915114c9.312237 9.427936 9.335786 24.792359 0.053242 34.248964L374.503464 735.397443c-7.922825 8.071288-7.802006 21.035724 0.269281 28.957525a20.401939 20.401939 0 0 0 14.342586 5.864815z"  /></svg>