<?xml version="1.0" standalone="no"?><!DOCTYPE svg PUBLIC "-//W3C//DTD SVG 1.1//EN" "http://www.w3.org/Graphics/SVG/1.1/DTD/svg11.dtd"><svg t="1555296717949" class="icon" style="" viewBox="0 0 1024 1024" version="1.1" xmlns="http://www.w3.org/2000/svg" p-id="1261" xmlns:xlink="http://www.w3.org/1999/xlink" width="200" height="200"><defs><style type="text/css"></style></defs><path d="M512 924.448C282.624 924.448 96 739.392 96 512S282.624 99.552 512 99.552c42.016 0 83.36 6.272 123.04 18.624 8.448 2.624 13.152 11.584 10.528 20.032-2.656 8.48-11.616 13.248-20.032 10.528C588.928 137.344 550.752 131.552 512 131.552 300.256 131.552 128 302.208 128 512s172.256 380.448 384 380.448S896 721.792 896 512c0-75.584-22.144-148.32-64.064-210.272-10.24-14.848-19.136-26.4-27.904-36.288-5.888-6.592-5.248-16.704 1.344-22.592 6.56-5.824 16.704-5.28 22.592 1.344 9.664 10.88 19.328 23.424 30.368 39.456C903.936 351.072 928 430.016 928 512 928 739.392 741.376 924.448 512 924.448zM777.76 232.224c-3.808 0-7.648-1.344-10.72-4.128-21.504-19.392-46.208-36.736-73.472-51.584-7.744-4.256-10.624-13.984-6.4-21.728 4.256-7.744 13.984-10.56 21.728-6.4 29.44 16.064 56.224 34.88 79.584 55.968 6.56 5.92 7.104 16.032 1.152 22.592C786.464 230.432 782.112 232.224 777.76 232.224z" fill="#ecc946" p-id="1262"></path><path d="M514.24 831.04c-54.112 0-106.624-12.864-152.224-37.376-7.776-4.192-10.72-13.888-6.528-21.664s13.92-10.656 21.664-6.528c42.048 22.592 91.2 34.944 140.896 33.536 158.208-3.264 284.864-134.688 282.24-292.992-3.296-155.776-131.968-280.384-288.192-280.384-2.016 0-4.032 0.032-6.048 0.064-76.832 1.6-148.448 32.8-201.632 87.904-53.216 55.136-81.632 127.68-80.032 204.32 1.28 77.568 34.208 151.36 90.368 202.56 6.528 5.952 7.008 16.064 1.024 22.592-5.952 6.528-16.064 7.04-22.592 1.024-62.624-57.088-99.36-139.328-100.8-225.6-1.792-85.12 29.856-165.824 89.024-227.136 59.072-61.216 138.592-95.904 223.936-97.696 2.24-0.032 4.544-0.064 6.752-0.064 173.568 0 316.576 138.496 320.192 311.776 2.912 175.936-137.824 321.984-313.696 325.6C517.152 831.008 515.68 831.04 514.24 831.04z" fill="#ecc946" p-id="1263"></path><path d="M526.912 343.936l49.568 85.44c2.144 4.256 5.696 7.072 10.656 7.744l97.088 20.512c5.664 1.408 10.624 5.664 12.736 11.328 1.408 6.304 0 12-3.552 16.928l-66.624 72.736c-2.816 4.224-4.928 8.48-4.256 13.408l10.656 98.144c0.704 5.632-2.144 11.296-7.104 14.848-4.96 4.224-11.328 4.928-16.992 2.08l-90.016-40.256c-4.96-2.112-9.216-2.112-14.176 0l-89.984 40.256c-5.696 2.848-12.064 2.112-17.056-2.08-4.896-3.552-7.072-9.216-7.072-14.848l10.624-98.144c0.704-4.928-0.672-9.184-4.224-13.408l-65.952-72.736c-4.256-4.928-5.664-10.624-3.52-16.928 1.408-5.664 6.368-9.92 12.032-11.328l97.088-20.512c4.96-0.672 8.544-3.488 11.328-7.744l48.864-85.44c3.552-5.664 8.544-8.48 14.912-8.48S523.328 338.272 526.912 343.936L526.912 343.936z" fill="#ecc946" p-id="1264"></path></svg>