<?xml version="1.0" standalone="no"?><!DOCTYPE svg PUBLIC "-//W3C//DTD SVG 1.1//EN" "http://www.w3.org/Graphics/SVG/1.1/DTD/svg11.dtd"><svg t="1555293346422" class="icon" style="" viewBox="0 0 1024 1024" version="1.1" xmlns="http://www.w3.org/2000/svg" p-id="1417" xmlns:xlink="http://www.w3.org/1999/xlink" width="200" height="200"><defs><style type="text/css"></style></defs><path d="M196.695 474.01c14.05 0 25.42-11.739 25.42-26.19 0-14.472-11.37-26.221-25.42-26.221-0.26 0-0.474 0.15-0.715 0.15l-60.76 0.145a31.181 31.181 0 0 0-4.254-0.295c-19.127 0-34.634 16.175-34.634 36.194L96 892.03c0 19.996 15.524 35.669 34.679 35.669 1.868 0 3.703 0.295 5.492 0l59.336 0.027c0.095 0 0.14 0.047 0.241 0.047 0.09 0 0.141-0.047 0.237-0.047h0.714v-0.15c13.043-0.54 23.504-11.448 23.504-25.013 0-13.59-10.461-24.493-23.504-25.037v-0.39h-49.534l1.407-403.126h48.123v-0.001z m715.91-37.536c-18.753-31.51-46.027-44.268-79.04-45.643a36.136 36.136 0 0 0-5.227-0.399l-199.746-0.69c13.085-39.138 22.07-85.766 22.07-129.588 0-28.407-3.106-56.077-8.794-82.715l-0.474 0.047C631.048 130.81 591.09 96 543.226 96c-55.677 0-92.82 48.254-92.82 106.354 0 3.248-0.283 6.397 0 9.551-2.915 108.612-88.71 195.955-190.792 207.943v55.003l-0.765 222.694v230.23h10.41l486.154 0.225 8.512-0.244c18.818 0.047 29.397-4.83 46.474-16.151 16.222-10.787 28.427-25.554 36.451-42.244 2.2-3.352 3.916-7.088 4.964-11.224l74.882-345.054c1.025-4.059 1.312-8.195 1.025-12.185 1.53-21.841-3.197-44.386-15.115-64.424z m-31.79 52.999L800.13 858.028l-0.09-0.047c-2.492 6.154-6.69 11.618-12.515 15.462a30.926 30.926 0 0 1-13.047 4.975c-1.457-0.197-2.964 0-4.49 0l-463.794-0.544-0.173-408.267c86.85-40.353 150.547-79.837 183.37-174.024 0.071 0.024 0.121 0.047 0.19 0.07 2.915-9.157 6.138-20.779 8.453-33.231 5.4-29.253 5.113-58.247 5.113-58.247-4.8-38.058 25.225-53.078 43.136-53.078 24.602 0.864 48.87 33.725 48.87 52.435 0 0 5.442 27.623 5.492 57.312 0.045 37.443-4.541 56.964-4.541 56.964h-0.451c-5.71 30.947-15.766 60.265-29.624 87.152l0.36 0.347a37.162 37.162 0 0 0-3.607 15.973c0 19.968 18.562 21.793 37.69 21.793l232.142 0.268 14.282 0.465v0.103c11.794-0.643 23.548 5.215 30.24 16.442 5.35 9.036 6.256 19.65 3.387 29.046l0.292 0.076z m-610.91 438.542c0.748 0.06 1.028 0.06 0.693-0.06 0.563-0.112 0.845-0.18-0.694-0.18-1.517 0-1.234 0.065-0.615 0.18-0.283 0.123-0.056 0.123 0.615 0.06z" p-id="1418"></path></svg>