<?xml version="1.0" standalone="no"?><!DOCTYPE svg PUBLIC "-//W3C//DTD SVG 1.1//EN" "http://www.w3.org/Graphics/SVG/1.1/DTD/svg11.dtd"><svg t="1555293340846" class="icon" style="" viewBox="0 0 1024 1024" version="1.1" xmlns="http://www.w3.org/2000/svg" p-id="1293" xmlns:xlink="http://www.w3.org/1999/xlink" width="200" height="200"><defs><style type="text/css"></style></defs><path d="M512 833.863c-10.327 0-18.933-3.443-25.818-8.606-5.163-3.443-51.636-39.588-106.714-89.502-72.29-65.405-125.647-123.926-154.907-170.398-13.77-22.376-27.539-43.03-36.145-67.127-12.048-29.26-17.212-56.799-17.212-86.06 0-55.077 18.933-106.713 55.078-144.58 36.145-39.587 86.06-61.962 137.696-61.962 58.52 0 113.598 29.26 149.743 75.732 36.145-48.193 91.223-75.732 149.744-75.732 51.636 0 101.55 22.375 137.695 61.963 36.145 39.587 55.078 89.502 55.078 144.58 0 67.126-30.981 117.04-55.078 153.186-30.981 48.193-82.617 104.993-154.907 170.398-55.078 49.914-101.55 86.06-106.714 89.502-8.606 6.885-17.212 8.606-27.539 8.606zM362.256 245.215c-41.308 0-79.174 17.212-108.435 48.194-29.26 30.981-44.75 74.01-44.75 117.04 0 24.097 5.163 46.473 15.49 70.57 8.606 20.654 20.654 41.308 34.424 60.241 68.848 106.714 244.409 244.41 251.294 249.573h3.442c6.885-5.164 184.168-142.859 251.294-249.573 22.376-36.145 48.193-75.732 48.193-130.81 0-44.751-15.49-86.06-44.75-117.041-29.26-30.982-67.127-48.194-108.436-48.194-53.356 0-104.992 30.982-132.531 82.618-3.443 6.884-10.327 10.327-17.212 10.327s-13.77-3.443-17.212-10.327c-25.818-49.915-77.454-82.618-130.81-82.618z" fill="#9c9c9c" p-id="1294"></path></svg>