<?xml version="1.0" standalone="no"?><!DOCTYPE svg PUBLIC "-//W3C//DTD SVG 1.1//EN" "http://www.w3.org/Graphics/SVG/1.1/DTD/svg11.dtd"><svg t="1555293353220" class="icon" style="" viewBox="0 0 1024 1024" version="1.1" xmlns="http://www.w3.org/2000/svg" p-id="1541" xmlns:xlink="http://www.w3.org/1999/xlink" width="200" height="200"><defs><style type="text/css"></style></defs><path d="M898.04 286.61c-6-4.25-13.25-6.5-20.95-6.5-23.34 0-47.28 19.25-87.57 53.27-17.4 14.69-35.4 29.89-51.98 41.18-21.22 14.45-30.9 16.01-34.08 16.01-0.21 0-0.41-0.01-0.59-0.02-4.6-0.37-18.36-3.94-46.86-29.11-20.99-18.54-42.95-42.41-62.33-63.47-6.19-6.73-11.82-12.82-16.97-18.3 14.36-20.27 23.1-48.24 23.1-79.56 0-63.37-35.76-113-81.42-113-45.66 0-81.42 49.63-81.42 113 0 33.2 9.82 62.64 25.75 83.13-4.61 5.68-9.65 12-15.23 19.02-17.47 21.99-37.28 46.91-56.52 66.6-26.14 26.73-39.4 31.32-43.89 32.06-0.82 0.13-1.76 0.2-2.82 0.2-7.57 0-22.68-3.31-51.61-19.04-22.78-12.4-47.81-29.03-69.89-43.71-44.06-29.29-67.94-44.57-87.13-44.57-10.84 0-17.95 4.61-22 8.48-10.8 10.32-10.67 24.83-6.41 51.51 2.66 16.67 7.5 40.01 14.38 69.38 11.44 48.8 28.76 115.4 51.48 197.94 38.61 140.26 80.07 280.1 80.48 281.5l5.2 17.53h524.4l4.75-18.36c0.37-1.43 37.31-144.33 70.38-287.79 19.48-84.49 33.85-152.72 42.7-202.8 5.34-30.27 8.75-54.39 10.12-71.71 2.06-26.15 0.59-43.19-13.07-52.87z m-379.65-150.5c14.99 0 32.42 27.95 32.42 64 0 18.11-4.4 34.17-10.68 45.67-6.22 11.4-14.29 18.32-21.74 18.32-7.28 0-15.15-6.61-21.31-17.54-6.51-11.55-11.11-27.93-11.11-46.45 0-36.05 17.43-64 32.42-64z m226.79 735.03H295.37c-6.2-21.07-17.45-59.53-30.99-106.64h507.54c-11.58 46.95-21.29 85.3-26.74 106.64z m103.57-446.72c-9.53 50.61-23.8 116.79-42.41 196.71-7.53 32.33-15.17 64.33-22.45 94.37H250.38c-8.22-28.97-16.88-59.75-25.48-90.8-44.81-161.84-61.78-236.32-67.98-270.54 12.42 7.54 27.2 17.36 38.71 25.02 50.02 33.25 106.72 70.94 148.63 70.94 3.69 0 7.3-0.29 10.72-0.85 40.74-6.65 81.64-54.57 130.87-116.52 5.35-6.73 11.43-14.38 17.3-21.55a61.78 61.78 0 0 0 15.24 1.9c6.75 0 13.29-1.09 19.52-3.15 6.66 7.02 13.61 14.57 19.71 21.2 54.56 59.29 99.61 104.9 141.34 108.24 1.48 0.12 2.99 0.18 4.5 0.18 36.25 0 77.64-34.95 117.67-68.75 13.37-11.29 25.99-21.94 36.94-29.97 1.43-1.05 2.76-2 4.01-2.87-1.39 15.52-4.94 41.92-13.33 86.44z" p-id="1542"></path></svg>