<?xml version="1.0" standalone="no"?><!DOCTYPE svg PUBLIC "-//W3C//DTD SVG 1.1//EN" "http://www.w3.org/Graphics/SVG/1.1/DTD/svg11.dtd"><svg t="1555294433511" class="icon" style="" viewBox="0 0 1554 1024" version="1.1" xmlns="http://www.w3.org/2000/svg" p-id="1229" xmlns:xlink="http://www.w3.org/1999/xlink" width="303.515625" height="200"><defs><style type="text/css"></style></defs><path d="M912.371156 355.996324a95.706477 95.706477 0 0 0-31.772715-21.64075 102.943596 102.943596 0 0 0-41.022105-8.013784 100.966627 100.966627 0 0 0-40.739681 8.013784 99.201476 99.201476 0 0 0-31.772714 21.64075 94.68269 94.68269 0 0 0-20.616962 33.00832 124.231315 124.231315 0 0 0 0.247121 84.056482 100.896021 100.896021 0 0 0 20.652265 33.537866 93.941327 93.941327 0 0 0 31.560896 21.88787 108.450866 108.450866 0 0 0 81.479362 0 97.25981 97.25981 0 0 0 31.772715-21.88787 98.601325 98.601325 0 0 0 20.864083-33.537866 118.08859 118.08859 0 0 0 7.484239-42.610741 113.852228 113.852228 0 0 0-7.484239-41.445741 97.859961 97.859961 0 0 0-20.616962-33.00832zM1118.576075 0.212524h-683.819428A428.613922 428.613922 0 0 0 0 421.765843V1024l269.220803-180.680838h849.355272a421.765137 421.765137 0 1 0 0-843.106638zM592.031585 602.446681h-85.009663v-142.624186h-137.187522v142.624186H284.824736V261.454846h85.009664v129.103131h137.187522V261.454846h85.009663v341.097744z m424.977712-98.07178a168.571903 168.571903 0 0 1-39.998318 57.367402 179.162808 179.162808 0 0 1-60.897703 36.856349 219.620065 219.620065 0 0 1-76.572243 13.026813 217.325369 217.325369 0 0 1-76.289818-13.026813 179.409929 179.409929 0 0 1-60.650582-36.856349 167.618722 167.618722 0 0 1-39.998318-57.367402 184.458261 184.458261 0 0 1-14.403631-73.924516 182.481292 182.481292 0 0 1 14.403631-74.136334 161.687815 161.687815 0 0 1 39.998318-56.131796 180.045384 180.045384 0 0 1 60.650582-35.656047 240.060512 240.060512 0 0 1 152.862061 0 179.409929 179.409929 0 0 1 60.897703 35.656047 162.605694 162.605694 0 0 1 39.998318 56.131796 183.081443 183.081443 0 0 1 14.40363 74.136334 185.093715 185.093715 0 0 1-14.40363 73.924516z m306.183061-172.667053h-99.377991v270.738833h-85.009664V331.707848h-99.448597V261.454846h283.836252v70.358911z m0 0" fill="#d81e06" p-id="1230"></path></svg>