<?xml version="1.0" standalone="no"?><!DOCTYPE svg PUBLIC "-//W3C//DTD SVG 1.1//EN" "http://www.w3.org/Graphics/SVG/1.1/DTD/svg11.dtd"><svg t="1555057775987" class="icon" style="" viewBox="0 0 1024 1024" version="1.1" xmlns="http://www.w3.org/2000/svg" p-id="1387" xmlns:xlink="http://www.w3.org/1999/xlink" width="200" height="200"><defs><style type="text/css"></style></defs><path d="M616.3 422.4c0-1.5 0.1-3 0.19999999-4.5l0-352.4 343.10000001 337-0.30000001 0 0.3 0.3L777.79999999 402.8 777.8 857.6l-0.2 0 0 23.3c0 43.80000001-36.1 79.2-80.6 79.2-44.5 0-80.6-35.5-80.59999999-79.2l-0.10000001-458.5zM246.1 623.7l0-454.9 0.9 0L247 145c0-43.7 36.1-79.2 80.7-79.2 44.5 0 80.6 35.5 80.60000001 79.2L408.3 603.5c0 3.9-0.4 7.7-1 11.5L407.3 960.8l-0.5-0.40000001L64.2 623.69999999l181.9 1e-8z" fill="#00bfc3" p-id="1388"></path></svg>